<svg xmlns="http://www.w3.org/2000/svg" aria-hidden="true" style="position:absolute;width:0;height:0;overflow:hidden"><defs><symbol id="icon-like" viewBox="0 0 32 32"><path d="M18.947 3.459c1.63.553 2.746 2.34 2.383 4.059l-.661 4.23c-.025.185.029.287.077.342.056.063.147.112.267.112h5.333c1.254 0 2.383.486 3.076 1.407.702.933.841 2.163.399 3.397-.16.447-.32.994-.506 1.644l-.042.147c-.173.603-.365 1.275-.591 1.977-.488 1.52-1.146 3.226-2.156 4.828-.922 1.461-2.134 2.8-4.286 2.8H8.881l-.001-2h13.36c1.095 0 1.783-.582 2.594-1.867.883-1.399 1.479-2.925 1.944-4.372.215-.67.4-1.314.573-1.92.014-.048.027-.096.041-.143.183-.638.36-1.249.546-1.768.251-.699.124-1.203-.115-1.52-.247-.329-.731-.609-1.477-.609h-5.333c-1.391 0-2.545-1.189-2.323-2.742l.002-.013.672-4.298.007-.031c.148-.664-.324-1.518-1.073-1.768l-.018-.006-.017-.006c-.271-.101-.626-.099-.99.026-.371.128-.639.344-.76.526l-.002.003-5.467 8.133-1.66-1.116 5.465-8.13c0-.001.001-.001.001-.002.412-.617 1.077-1.067 1.773-1.306.697-.24 1.534-.305 2.325-.014z"/><path d="M1.907 14.069c0-1.289 1.045-2.333 2.333-2.333h4.667c1.289 0 2.333 1.045 2.333 2.333v14.333h-7c-1.289 0-2.333-1.045-2.333-2.333v-12zm2.333-.333c-.184 0-.333.149-.333.333v12c0 .184.149.333.333.333h5V14.069c0-.184-.149-.333-.333-.333H4.24z"/></symbol><symbol id="icon-comment" viewBox="0 0 32 32"><path d="M5.769 8.851zm.589 18.125zm18.125-4.745zm1.748-1.748zm0-11.632zm-1.748-1.748zm-16.966 0zm2.759 15.954zm-3.609-9.99c0-1.142.001-1.918.05-2.519.048-.585.134-.883.241-1.092L4.582 8.245c-.33.647-.461 1.336-.522 2.085-.06.734-.059 1.638-.059 2.736h2.667zm0 2.933v-2.933H4V16h2.667zM4 16v6.667h2.667V16H4zm0 6.667v3.885h2.667v-3.885H4zm0 3.884c0 1.722 2.082 2.585 3.3 1.367l-1.886-1.886c.462-.462 1.252-.135 1.252.519H3.999zm3.3 1.368L11.219 24l-1.886-1.886-3.919 3.919L7.3 27.919zm12.967-6.586h-9.048V24h9.048v-2.667zm3.61-.29c-.209.106-.507.193-1.092.241-.6.049-1.377.05-2.519.05v2.667c1.098 0 2.002.001 2.736-.059.749-.061 1.438-.193 2.086-.522l-1.211-2.376zm1.166-1.166c-.256.502-.664.91-1.165 1.165l1.211 2.376a5.3366 5.3366 0 0 0 2.331-2.331l-2.376-1.211zm.29-3.61c0 1.142-.001 1.919-.05 2.519-.048.585-.134.883-.241 1.092l2.376 1.211c.33-.647.461-1.336.522-2.086.06-.734.059-1.638.059-2.736h-2.667zm0-3.2v3.2H28v-3.2h-2.667zm-.29-3.611c.106.209.193.507.241 1.092.049.6.05 1.377.05 2.519h2.667c0-1.098.001-2.002-.059-2.736-.061-.749-.193-1.438-.522-2.085l-2.376 1.211zm-1.166-1.165c.502.256.91.664 1.165 1.165l2.376-1.211a5.3314 5.3314 0 0 0-2.331-2.331L23.876 8.29zM20.267 8c1.142 0 1.919.001 2.519.05.585.048.883.134 1.092.241l1.211-2.376c-.647-.33-1.336-.461-2.086-.522-.734-.06-1.638-.059-2.736-.059v2.667zm-8.534 0h8.533V5.333h-8.533V8zm-3.61.291c.209-.106.507-.193 1.092-.241.6-.049 1.377-.05 2.519-.05V5.333c-1.098 0-2.002-.001-2.736.059-.749.061-1.438.193-2.085.522L8.124 8.29zM6.957 9.456c.256-.502.664-.91 1.165-1.165L6.911 5.915A5.3314 5.3314 0 0 0 4.58 8.246l2.376 1.211zM11.219 24v-2.667c-.707 0-1.386.281-1.886.781L11.219 24z"/></symbol><symbol id="icon-download" viewBox="0 0 32 32"><path d="M14.667 4.017c-.002-.736.593-1.335 1.329-1.337s1.335.593 1.337 1.329l-2.667.008z"/><path d="m19.088 13.727-1.719 1.729-.036-11.448-2.667.008.036 11.448-1.729-1.718c-.522-.519-1.367-.516-1.886.006s-.516 1.367.006 1.886l.003.003.001.001 4.954 4.923 4.927-4.958-1.891-1.88z"/><path d="M20.979 15.607c.519-.522.516-1.367-.006-1.886s-1.367-.516-1.886.006l1.891 1.88z"/><path d="M5.333 16c0-1.473 1.194-2.667 2.667-2.667.736 0 1.333-.597 1.333-1.333S8.736 10.667 8 10.667c-2.946 0-5.333 2.388-5.333 5.333v8c0 2.945 2.388 5.333 5.333 5.333h14.667c3.682 0 6.667-2.985 6.667-6.667v-6.667c0-2.946-2.388-5.333-5.333-5.333-.736 0-1.333.597-1.333 1.333s.597 1.333 1.333 1.333c1.473 0 2.667 1.194 2.667 2.667v6.667c0 2.209-1.791 4-4 4H8.001c-1.473 0-2.667-1.194-2.667-2.667v-8z"/></symbol><symbol id="icon-view" viewBox="0 0 32 32"><path d="M16 12c-2.209 0-4 1.791-4 4s1.791 4 4 4 4-1.791 4-4-1.791-4-4-4zm-1.333 4c0-.736.597-1.333 1.333-1.333s1.333.597 1.333 1.333-.597 1.333-1.333 1.333-1.333-.597-1.333-1.333z"/><path d="M29.107 15.041C26.056 9.536 21.083 6.667 16 6.667S5.944 9.536 2.893 15.041c-.298.538-.302 1.202-.013 1.743 3.002 5.618 8.003 8.55 13.12 8.55s10.118-2.932 13.12-8.55c.289-.541.285-1.204-.013-1.743zM16 22.667c-3.919 0-7.946-2.17-10.544-6.735C8.092 11.462 12.098 9.334 16 9.334s7.909 2.128 10.544 6.598c-2.598 4.565-6.626 6.735-10.544 6.735z"/></symbol><symbol id="icon-search" viewBox="0 0 32 32"><path d="m31.008 27.231-7.58-6.447c-.784-.705-1.622-1.029-2.299-.998 1.789-2.096 2.87-4.815 2.87-7.787 0-6.627-5.373-12-12-12s-12 5.373-12 12 5.373 12 12 12c2.972 0 5.691-1.081 7.787-2.87-.031.677.293 1.515.998 2.299l6.447 7.58c1.104 1.226 2.907 1.33 4.007.23s.997-2.903-.23-4.007zM12 20c-4.418 0-8-3.582-8-8s3.582-8 8-8 8 3.582 8 8-3.582 8-8 8z"/></symbol></defs></svg>